#!OML:ASF E:\CV Data\Top Level 1\Subject 1\Session 1\player.ASF
:FULLY-SPECIFIED
:DEGREES
691
root -2.47832 17.4992 -11.8868 -6.96349 49.3948 -15.552
lowerback 6.32894 1.21799 3.74215
upperback 2.50839 1.90703 1.80278
thorax -0.900639 0.979959 -0.376109
lowerneck 5.23012 -16.8857 -21.3403
upperneck 22.1128 -25.3751 12.8493
head 10.7526 -12.8263 5.01656
rclavicle -1.35174e-014 9.54166e-015
rhumerus -27.9822 58.1817 -111.15
rradius 80.3214
rwrist -47.2475
rhand -37.5762 -6.79078
rfingers 7.12502
rthumb -10.6305 -36.5019
lclavicle -1.35174e-014 9.54166e-015
lhumerus -47.627 -1.8317 86.9789
lradius 93.4236
lwrist 54.7732
lhand -19.4281 26.814
lfingers 7.12502
lthumb 6.89194 56.6818
rfemur -10.6103 -18.4596 33.1798
rtibia 51.5964
rfoot -12.071 -3.46977
rtoes -20.3795
lfemur -26.0069 19.0522 -22.8385
ltibia 34.8975
lfoot -12.3464 21.5202
ltoes 19.5449
692
root -2.48994 17.4767 -11.9655 -6.73796 48.5861 -15.4514
lowerback 6.08761 1.30671 3.76974
upperback 2.42779 2.01547 1.84249
thorax -0.84637 1.03333 -0.352554
lowerneck 6.1124 -17.3163 -21.5622
upperneck 20.8611 -26.1806 13.4927
head 10.4214 -13.2401 5.18941
rclavicle -8.24956e-014 -7.95139e-015
rhumerus -28.3882 58.3453 -111.334
rradius 80.4418
rwrist -47.0924
rhand -36.6543 -7.17991
rfingers 7.12502
rthumb -9.74109 -36.9346
lclavicle -8.24956e-014 -7.95139e-015
lhumerus -48.1239 -1.34354 87.0479
lradius 93.6876
lwrist 54.6864
lhand -19.6415 26.9132
lfingers 7.12502
lthumb 6.68594 56.7876
rfemur -9.7344 -17.9065 33.4714
rtibia 50.0141
rfoot -12.2173 -2.86526
rtoes -20.3451
lfemur -26.5915 19.3172 -22.9938
ltibia 35.3867
lfoot -12.5426 21.8571
ltoes 20.0345
693
root -2.50344 17.4516 -12.0469 -6.47997 47.7503 -15.3485
lowerback 5.85358 1.39927 3.81779
upperback 2.34613 2.13073 1.88987
thorax -0.796474 1.09018 -0.332552
lowerneck 6.89408 -17.7159 -21.7725
upperneck 19.6528 -26.913 14.1148
head 10.1181 -13.6199 5.35704
rclavicle 1.05356e-014 2.62396e-014
rhumerus -28.7413 58.4924 -111.458
rradius 80.6051
rwrist -46.9263
rhand -35.7057 -7.60798
rfingers 7.12502
rthumb -8.82577 -37.4034
lclavicle 1.05356e-014 2.62396e-014
lhumerus -48.5465 -0.88336 87.1125
lradius 93.9294
lwrist 54.6229
lhand -19.8308 27.0139
lfingers 7.12502
lthumb 6.50318 56.894
rfemur -8.89323 -17.2139 33.7524
rtibia 48.3294
rfoot -12.7786 -2.55102
rtoes -20.0275
lfemur -27.2672 19.572 -23.1605
ltibia 35.9526
lfoot -12.7909 22.2042
ltoes 20.6357
694
root -2.519 17.4242 -12.1303 -6.1906 46.8975 -15.2448
lowerback 5.62711 1.50655 3.89791
upperback 2.25604 2.26753 1.92509
thorax -0.756868 1.15772 -0.343884
lowerneck 7.59236 -18.0917 -21.929
upperneck 18.4903 -27.5854 14.7142
head 9.83352 -13.9691 5.51386
rclavicle 2.66371e-014 -1.27222e-014
rhumerus -29.029 58.568 -111.523
rradius 80.8113
rwrist -46.8205
rhand -34.6898 -8.06076
rfingers 7.12502
rthumb -7.84535 -37.8952
lclavicle 2.66371e-014 -1.27222e-014
lhumerus -48.9039 -0.516597 87.1571
lradius 94.1471
lwrist 54.58
lhand -19.9927 27.1005
lfingers 7.12502
lthumb 6.34684 56.9854
rfemur -8.09604 -16.4058 34.0243
rtibia 46.6049
rfoot -13.7062 -2.48629
rtoes -19.4888
lfemur -28.0335 19.8344 -23.3391
ltibia 36.5913
lfoot -13.0689 22.5343
ltoes 21.259
695
root -2.53678 17.3949 -12.2155 -5.88481 46.0331 -15.1613
lowerback 5.40218 1.61551 4.00161
upperback 2.16535 2.40788 1.96867
thorax -0.717671 1.22717 -0.359255
lowerneck 8.18522 -18.4353 -22.0632
upperneck 17.3811 -28.1848 15.291
head 9.57378 -14.2813 5.66333
rclavicle 1.98785e-014 3.10104e-014
rhumerus -29.2559 58.5782 -111.537
rradius 81.036
rwrist -46.8028
rhand -33.7064 -8.46967
rfingers 7.12502
rthumb -6.89615 -38.3373
lclavicle 1.98785e-014 3.10104e-014
lhumerus -49.1835 -0.192495 87.1982
lradius 94.33
lwrist 54.53
lhand -20.1264 27.1477
lfingers 7.12502
lthumb 6.21775 57.0364
rfemur -7.3652 -15.4956 34.3053
rtibia 44.909
rfoot -14.8982 -2.63757
rtoes -18.8064
lfemur -28.8909 20.1158 -23.517
ltibia 37.2982
lfoot -13.3406 22.832
ltoes 21.8155
696
root -2.55663 17.3642 -12.3029 -5.57646 45.1564 -15.1054
lowerback 5.20051 1.76088 4.18101
upperback 2.05451 2.60131 1.97505
thorax -0.704676 1.32276 -0.458137
lowerneck 8.76735 -18.7657 -22.1004
upperneck 16.2957 -28.7526 15.8752
head 9.31253 -14.5766 5.81056
rclavicle -2.05742e-014 1.51076e-014
rhumerus -29.4038 58.4126 -111.494
rradius 81.283
rwrist -46.9283
rhand -32.7095 -8.84515
rfingers 7.12502
rthumb -5.93377 -38.7421
lclavicle -2.05742e-014 1.51076e-014
lhumerus -49.4206 -0.0693419 87.2089
lradius 94.4895
lwrist 54.4778
lhand -20.2357 27.1436
lfingers 7.12502
lthumb 6.11224 57.0354
rfemur -6.72543 -14.498 34.5961
rtibia 43.304
rfoot -16.1997 -2.98187
rtoes -18.154
lfemur -29.8296 20.4243 -23.6889
ltibia 38.0694
lfoot -13.5866 23.0883
ltoes 22.2667
